*******************************************************************************
            The Adventures Of Tintin.2011.Cam.Xvid- SiNiSTER  
*******************************************************************************

-------------------------------------------------------------------------------
                              General Information
-------------------------------------------------------------------------------

 
http://www.pix2links.com/image/Qrlhq.jpg


Format                           : AVI
Format/Info                      : Audio Video Interleave
File size                        : 1.37 GiB
Duration                         : 1h 39mn
Overall bit rate                 : 1 971 Kbps
Writing application              : VirtualDubMod 1.5.4.1 (build 2178/release)
Writing library                  : VirtualDub build 32839/release

Video
ID                               : 0
Format                           : MPEG-4 Visual
Format profile                   : Advanced Simple@L5
Format settings, BVOP            : Yes
Format settings, QPel            : Yes
Format settings, GMC             : 3 warppoints
Format settings, Matrix          : Default (H.263)
Muxing mode                      : Packed bitstream
Codec ID                         : XVID
Codec ID/Hint                    : XviD
Duration                         : 1h 39mn
Bit rate                         : 1 833 Kbps
Width                            : 720 pixels
Height                           : 304 pixels
Display aspect ratio             : 2.35:1
Frame rate                       : 25.000 fps
Color space                      : YUV
Chroma subsampling               : 4:2:0
Bit depth                        : 8 bits
Scan type                        : Progressive
Bits/(Pixel*Frame)               : 0.335
Stream size                      : 1.28 GiB (93%)
Writing library                  : XviD 64

Audio
ID                               : 1
Format                           : MPEG Audio
Format version                   : Version 1
Format profile                   : Layer 3
Mode                             : Joint stereo
Mode extension                   : MS Stereo
Codec ID                         : 55
Codec ID/Hint                    : MP3
Duration                         : 1h 39mn
Bit rate mode                    : Constant
Bit rate                         : 128 Kbps
Channel(s)                       : 2 channels
Sampling rate                    : 44.1 KHz
Stream size                      : 91.2 MiB (6%)
Alignment                        : Split accross interleaves
Interleave, duration             : 40 ms (1.00 video frame)
Writing library                  : LAME3.98r




Video Source: The Adventures Of Tintin 2011 CAMRIP Russian-Relizlab.....thanks	
Audio Source: ILLUMINATI.....thanks


Greets:
DarkScene,HDScene,Noir,CrEwSaDe,blackjesus,ViSiON,HDLiTE,UnKnOwN,IMAGiNE,
FLAWL3SS,Rx,ELEKTRI4KA,CiNEDUB,BDK,SAFCuk009,HiVE-CM8..... and everybody else we 
respect.. u know who u are

-------------------------------------------------------------------------------
                               Post Information
-------------------------------------------------------------------------------
Encoded by...........: SiNiSTER
 
Have sumthing to offer..looking for suppliers... cammers,cams,screeners, audio
supplier.. and any pre retail DVD/BR any RC...if u can provide any email us at
sinister@hushmail.me
-------------------------------------------------------------------------------
                                 Release Notes
-------------------------------------------------------------------------------

source was nice..just denoised, slight RGB adjustment, levels and contrast..
then i sharpend it.. the i cleaned up ILLUMINATI's Cam audio and synced and muxed 
to my encode....enjoy



-------------------------------------------------------------------------------
                                 ScreenShots
-------------------------------------------------------------------------------
 
http://www.pix2links.com/image/YrRH.png 
http://www.pix2links.com/image/3LZJQ.png 
http://www.pix2links.com/image/cZd5U.png 
http://www.pix2links.com/image/pz6sj.png 
http://www.pix2links.com/image/tcKu4.jpg

-------------------------------------------------------------------------------
 
http://leetleech.org/images/33506450373550172140.gif


-------------------------------------------------------------------------------
Generated with Cool NFO Creator - http://fly.to/coolbeans
-------------------------------------------------------------------------------

 
http://www.pix2links.com/images/33502453931372952618.gif